<svg xmlns="http://www.w3.org/2000/svg" viewBox="0 0 512 512">
  <defs>
    <linearGradient id="bg" x1="0" y1="0" x2="1" y2="1">
      <stop offset="0%" stop-color="#0f1722"/>
      <stop offset="100%" stop-color="#121b28"/>
    </linearGradient>
    <linearGradient id="cup" x1="0" y1="0" x2="1" y2="1">
      <stop offset="0%" stop-color="#f4d08b"/>
      <stop offset="100%" stop-color="#d4a853"/>
    </linearGradient>
    <linearGradient id="steam" x1="0" y1="0" x2="0" y2="1">
      <stop offset="0%" stop-color="#9af0d2" stop-opacity="0.9"/>
      <stop offset="100%" stop-color="#4adeb5" stop-opacity="0.2"/>
    </linearGradient>
  </defs>
  <rect width="512" height="512" rx="112" fill="url(#bg)"/>
  <rect x="84" y="354" width="344" height="28" rx="14" fill="#09bc8a" fill-opacity="0.35"/>
  <path d="M132 186h206c16 0 29 13 29 29v102c0 39-31 70-70 70H202c-39 0-70-31-70-70V186z" fill="url(#cup)"/>
  <path d="M366 214h28c35 0 62 27 62 62s-27 62-62 62h-24v-30h24c18 0 32-14 32-32s-14-32-32-32h-28v-30z" fill="#d9b66f"/>
  <rect x="154" y="235" width="192" height="24" rx="12" fill="#1f2a3a" fill-opacity="0.22"/>
  <path d="M208 124c16-18 17-35 3-54" stroke="url(#steam)" stroke-width="16" stroke-linecap="round" fill="none"/>
  <path d="M258 114c16-18 17-35 3-54" stroke="url(#steam)" stroke-width="16" stroke-linecap="round" fill="none"/>
  <path d="M308 124c16-18 17-35 3-54" stroke="url(#steam)" stroke-width="16" stroke-linecap="round" fill="none"/>
  <circle cx="374" cy="124" r="46" fill="#09bc8a" fill-opacity="0.18"/>
  <path d="M354 124h40M374 104v40" stroke="#4adeb5" stroke-width="12" stroke-linecap="round"/>
</svg>
